<svg xmlns="http://www.w3.org/2000/svg" viewBox="0 0 32 32"><defs><style>.cls-1{fill:#231f20}</style></defs><g id="location"><path class="cls-1" d="M22.37 21.09a1 1 0 0 0-1.3.56 1 1 0 0 0 .56 1.3C23.09 23.53 24 24.32 24 25c0 1.22-3.12 3-8 3s-8-1.78-8-3c0-.68.91-1.47 2.37-2.05a1 1 0 0 0 .56-1.3 1 1 0 0 0-1.3-.56C7.29 22 6 23.41 6 25c0 2.85 4.3 5 10 5s10-2.15 10-5c0-1.59-1.29-3-3.63-3.91z"/><path class="cls-1" d="M16 25a1 1 0 0 0 .68-.27C24 17.82 25.47 9.4 22.59 5.26a7.5 7.5 0 0 0-2.74-2.33 8.43 8.43 0 0 0-7.7 0 7.5 7.5 0 0 0-2.74 2.33C6.53 9.4 8 17.82 15.32 24.73A1 1 0 0 0 16 25zM11.05 6.4a5.5 5.5 0 0 1 2-1.69 6.4 6.4 0 0 1 5.86 0A5.5 5.5 0 0 1 21 6.4c2.2 3.25.9 10.25-5 16.2-5.9-5.95-7.2-12.95-4.95-16.2z"/><path class="cls-1" d="M19 9a3 3 0 1 0-3 3 3 3 0 0 0 3-3zm-4 0a1 1 0 1 1 1 1 1 1 0 0 1-1-1z"/></g></svg>