<svg data-name="图层 1" id="图层_1" viewBox="0 0 500 500" xmlns="http://www.w3.org/2000/svg"><defs><style>.cls-2{fill:#231815}</style></defs><path d="M215.44 305.85h23.82l5.43-5.2a7.65 7.65 0 0 1 10.61 0l5.43 5.2h23.82c0-3.75 2.42-7.5 7.25-7.5h28.36a81.5 81.5 0 0 0-54.33-121.91c-33.28-6.74-68.23 8.91-85.76 37.86a82.85 82.85 0 0 0-.52 84.06h28.65c4.8-.01 7.24 3.74 7.24 7.49z" fill="none"/><path class="cls-2" d="M180.07 214.3c17.54-28.95 52.48-44.6 85.76-37.86a82.68 82.68 0 0 1 65.94 80.25c.07-9.66 15.07-9.65 15 0a98 98 0 0 0-64-91.07C245 151.8 200.82 164 175.45 195.05c-23.69 29-28.74 69.75-12.79 103.3h16.88a82.85 82.85 0 0 1 .53-84.05z"/><path class="cls-2" d="M331.77 256.69c.07 9.65 15.07 9.67 15 0s-14.93-9.69-15 0z"/><path class="cls-2" d="M331.77 256.69a83.48 83.48 0 0 1-11.6 41.66H337a97.63 97.63 0 0 0 9.78-41.66c.06 9.67-14.94 9.65-15.01 0zM257.5 131.84V98.18c0-9.65-15-9.67-15 0v33.65c0 9.66 15 9.67 15 .01zM250 98.18zm-56 46.6l-16.83-29.15c-4.83-8.36-17.79-.81-13 7.57L181 152.35c4.92 8.36 17.89.81 13-7.57zm-6.48 3.79l-16.83-29.15zm-78.58 35.34l29.15 16.83c8.38 4.84 15.94-8.12 7.57-13L116.51 171c-8.37-4.87-15.94 8.08-7.57 12.91zm3.79-6.48l29.15 16.83zm-21.24 86.76h33.65c9.65 0 9.67-15 0-15H91.49c-9.65 0-9.67 15 0 15zm0-7.5zm317.02-7.5h-33.65c-9.65 0-9.67 15 0 15h33.65c9.65 0 9.67-15 0-15zm-33.65 7.5zm-12.95-55.95l29.15-16.83c8.36-4.83.81-17.79-7.57-13l-29.15 16.83c-8.34 4.87-.81 17.84 7.57 13zm25.36-23.3l-29.15 16.83zm-68.37-25.09l16.83-29.15c4.84-8.37-8.12-15.94-13-7.57L306 144.78c-4.88 8.37 8.07 15.94 12.9 7.57zm10.35-32.93l-16.83 29.15zM291.8 298.35c-4.83 0-7.24 3.75-7.25 7.5h30.62a83.67 83.67 0 0 0 5-7.5H291.8zm80.9 7.5v7.5h34.62c9.65 0 9.67-15 0-15H337q-1.85 3.84-4 7.5z"/><path class="cls-2" d="M315.18 305.85H333q2.17-3.66 4-7.5h-16.83a83.67 83.67 0 0 1-4.99 7.5zm-30.62 0c0 3.75 2.41 7.5 7.25 7.5h17.06a82.64 82.64 0 0 0 6.31-7.5h-30.62zm48.44 0q-2.29 3.86-4.91 7.5h44.61v-7.5z"/><path class="cls-2" d="M328 313.35q2.62-3.64 4.91-7.5h-17.73a82.64 82.64 0 0 1-6.31 7.5zm-235.32-15c-9.65 0-9.67 15 0 15h34.62v-7.5h39.35q-2.18-3.68-4-7.5h-70zm122.76 7.5c0-3.75-2.41-7.5-7.24-7.5h-28.65a77.11 77.11 0 0 0 5 7.5h30.86z"/><path class="cls-2" d="M184.59 305.85a77.11 77.11 0 0 1-5-7.5h-16.93q1.81 3.82 4 7.5zm-17.47.81c-.16-.27-.31-.54-.47-.81H127.3v7.5h44.28a84.498 84.498 0 0 1-4.46-6.69zm23.97 6.69h17.11c4.83 0 7.24-3.75 7.24-7.5h-30.85q.92 1.21 1.89 2.38 2.2 2.68 4.61 5.12z"/><path class="cls-2" d="M171.58 313.35h19.51q-2.4-2.45-4.61-5.12-1-1.17-1.89-2.38h-17.94c.16.27.31.54.47.81 1.4 2.34 2.88 4.54 4.46 6.69zM124.85 346h2.45v-7.5h-2.45c-9.65 0-9.67 15 0 15h2.45V346zm250.3 0h-2.45v7.5h2.45c9.65 0 9.67-15 0-15h-2.45v7.5zM255.3 300.65a7.65 7.65 0 0 0-10.61 0l-5.43 5.2h21.47zm-47.1 52.81c3.86-.26 6.59-3.27 9.22-5.92-1.38-.5-2.75-1-4.11-1.58h-86v7.5h59.29c7.13 0 14.47.48 21.6 0zm13.39-20.31L250 306l28.61 27.38a77.93 77.93 0 0 0 7.5-3.2l-25.37-24.28h-21.48l-25.18 24.09q3.68 1.74 7.51 3.16z"/><path class="cls-2" d="M290.41 344.63l1.39 1.37h80.9v-7.5h-71.08a94.14 94.14 0 0 1-11.21 6.13zM208.2 346l1.59-1.52a98.23 98.23 0 0 1-11.17-6H127.3V346zm83.6 0h-4.41q-2.35 1-4.76 1.86c1.24 1.11 2.47 2.22 3.73 3.3 5 4.36 15.88 2.34 22 2.34h64.34V346z"/><path class="cls-2" d="M297.11 340.65l-5.3-2.2h3l-8.71-8.33a77.93 77.93 0 0 1-7.5 3.2l11.8 11.29a94.14 94.14 0 0 0 11.21-6.17h-6.81z"/><path class="cls-2" d="M297.11 340.65l-2.3-2.2h-3zm-78.74 5.95l.63-.6h-5.73c1.36.56 2.72 1.09 4.11 1.58zm-10.17-8.14h-3l-2.3 2.2z"/><path class="cls-2" d="M214.09 329.94l-8.9 8.51h3l-5.3 2.2 2.3-2.2h-6.57a98.23 98.23 0 0 0 11.17 6l11.8-11.29q-3.82-1.43-7.5-3.22zm68.54 17.88q2.37-.82 4.76-1.82h-6.84c.69.58 1.38 1.2 2.08 1.82zm-37.93-36.56q2.65 2.53 5.27 5.1l5.33-5.1z"/><path class="cls-2" d="M221.59 333.15a83.19 83.19 0 0 0 8.17 2.56l1.77-1.69L250 316.36q-2.63-2.57-5.27-5.1h10.57l-5.33 5.1c6.65 6.5 13.25 13.12 20 19.61a82.23 82.23 0 0 0 8.19-2.45l.5-.19L250 306zM208.2 346h5.11q-1.78-.73-3.52-1.52zm83.6 0l-1.39-1.33q-1.49.69-3 1.33z"/><path class="cls-2" d="M229.76 335.7a83.19 83.19 0 0 1-8.17-2.56l-11.8 11.29q1.75.8 3.52 1.52H219zm48.35-2.18a82.23 82.23 0 0 1-8.19 2.45c3.5 3.38 7 6.73 10.63 10h6.84q1.52-.64 3-1.33l-11.8-11.29zm3.32 45.05H153.5c-9.65 0-9.67 15 0 15h193c9.65 0 9.67-15 0-15zm-127.92 7.5z"/></svg>