<svg xmlns="http://www.w3.org/2000/svg" viewBox="0 0 16.854 16.854"><g fill="#030104"><path d="M11.663 1.462c-1.37 0-2.681.545-3.652 1.506a3.809 3.809 0 0 0-3.909 1.267A3.816 3.816 0 0 0 0 8.035a3.795 3.795 0 0 0 3.431 3.792l6.772.001c.008.001.014.004.021.004h1.764a5.198 5.198 0 0 0 4.866-5.178 5.198 5.198 0 0 0-5.191-5.192zm.27 9.216h-.479l-.008-.001H3.518a2.646 2.646 0 0 1-2.363-2.642 2.66 2.66 0 0 1 2.657-2.658c.14 0 .288.014.453.043l.368.063.209-.309A2.67 2.67 0 0 1 7.98 4.169l.375.141.264-.302a4.036 4.036 0 0 1 3.044-1.391A4.042 4.042 0 0 1 15.7 6.654a4.042 4.042 0 0 1-3.767 4.024zM8.448 14.5c0 .493.356.892.797.892s.797-.398.797-.892-.797-1.288-.797-1.288-.797.795-.797 1.288zM10.529 13.401c0 .355.22.644.49.644s.49-.288.49-.644c0-.356-.49-.93-.49-.93s-.49.574-.49.93z"/></g></svg>