<svg xmlns="http://www.w3.org/2000/svg" viewBox="0 0 496 496"><circle cx="248" cy="248" r="142.4" fill="#ffce00"/><path d="M248 105.6c78.4 0 142.4 64 142.4 142.4s-64 142.4-142.4 142.4" fill="#ff9d00"/><path d="M390.4 248c0 78.4-64 131.2-142.4 131.2S105.6 326.4 105.6 248s64-131.2 142.4-131.2S390.4 169.6 390.4 248z" fill="#ffbc00"/><path d="M248 116.8c78.4 0 142.4 52.8 142.4 131.2s-64 131.2-142.4 131.2S105.6 326.4 105.6 248" fill="#ffb000"/><path d="M248 116.8c78.4 0 142.4 52.8 142.4 131.2s-64 131.2-142.4 131.2" fill="#ffbc00"/><path d="M390.4 248c0 78.4-64 131.2-142.4 131.2" fill="#ffce00"/><circle cx="248" cy="59.2" r="10.4" fill="#ff9d00"/><path fill="#ffce00" d="M260.8 24.8l-12.8 4-12.8-4L248 0z"/><circle cx="248" cy="436.8" r="10.4" fill="#ff9d00"/><path fill="#ffce00" d="M235.2 471.2l12.8-4 12.8 4L248 496z"/><path d="M388.8 122.4c-4 4-11.2 4-15.2 0s-4-11.2 0-15.2 11.2-4 15.2 0 4 11.2 0 15.2z" fill="#ff9d00"/><path fill="#ffce00" d="M415.2 99.2l-12-6.4-6.4-12 26.4-8z"/><circle cx="114.4" cy="381.6" r="10.4" fill="#ff9d00"/><path fill="#ffce00" d="M80.8 396.8l12 6.4 6.4 12-26.4 8z"/><path d="M436.8 258.4c-5.6 0-10.4-4.8-10.4-10.4s4.8-10.4 10.4-10.4 10.4 4.8 10.4 10.4c0 5.6-4.8 10.4-10.4 10.4z" fill="#ff9d00"/><path fill="#ffce00" d="M471.2 260.8l-4-12.8 4-12.8L496 248z"/><circle cx="59.2" cy="248" r="10.4" fill="#ff9d00"/><path fill="#ffce00" d="M24.8 235.2l4 12.8-4 12.8L0 248z"/><path d="M373.6 388.8c-4-4-4-11.2 0-15.2s11.2-4 15.2 0 4 11.2 0 15.2-11.2 4-15.2 0z" fill="#ff9d00"/><path fill="#ffce00" d="M396.8 415.2l6.4-12 12-6.4 8 26.4z"/><path d="M122.4 107.2c4 4 4 11.2 0 15.2s-11.2 4-15.2 0-4-11.2 0-15.2 11.2-4 15.2 0z" fill="#ff9d00"/><g fill="#ffce00"><path d="M99.2 80.8l-6.4 12-12 6.4-8-26.4zM331.2 78.4c-2.4 5.6-8.8 8-13.6 5.6-5.6-2.4-8-8.8-5.6-13.6 2.4-5.6 8.8-8 13.6-5.6 5.6 2.4 8 8.8 5.6 13.6z"/></g><path fill="#ff9d00" d="M347.2 47.2l-13.6-.8-9.6-8.8L344.8 20z"/><circle cx="174.4" cy="421.6" r="10.4" fill="#ffce00"/><path fill="#ff9d00" d="M148.8 448.8l13.6.8 9.6 8.8-20.8 17.6z"/><path d="M426.4 187.2c-5.6 2.4-12-.8-13.6-5.6-2.4-5.6.8-12 5.6-13.6 5.6-2.4 12 .8 13.6 5.6 3.2 5.6 0 11.2-5.6 13.6z" fill="#ffce00"/><path fill="#ff9d00" d="M460 176l-8.8-10.4-.8-12.8 27.2 2.4z"/><path d="M69.6 308.8c5.6-2.4 12 .8 13.6 5.6 2.4 5.6-.8 12-5.6 13.6-5.6 2.4-12 0-14.4-5.6-2.4-5.6.8-11.2 6.4-13.6z" fill="#ffce00"/><path fill="#ff9d00" d="M36 320l8.8 10.4.8 12.8-27.2-2.4z"/><path d="M417.6 331.2c-5.6-2.4-8-8.8-5.6-13.6 2.4-5.6 8.8-8 13.6-5.6 5.6 2.4 8 8.8 5.6 13.6-2.4 5.6-8.8 8-13.6 5.6z" fill="#ffce00"/><path fill="#ff9d00" d="M448.8 347.2l.8-13.6 8.8-9.6 17.6 20.8z"/><path d="M78.4 164.8c5.6 2.4 8 8.8 5.6 13.6-2.4 5.6-8.8 8-13.6 5.6-5.6-2.4-8-8.8-5.6-13.6 2.4-5.6 8.8-8 13.6-5.6z" fill="#ffce00"/><path fill="#ff9d00" d="M47.2 148.8l-.8 13.6-8.8 9.6L20 151.2z"/><circle cx="318.4" cy="422.4" r="10.4" fill="#ffce00"/><path fill="#ff9d00" d="M320 460l10.4-8.8 12.8-.8-2.4 27.2z"/><path d="M187.2 69.6c2.4 5.6-.8 12-5.6 13.6-5.6 2.4-12-.8-13.6-5.6-2.4-5.6 0-12 5.6-14.4 5.6-2.4 11.2.8 13.6 6.4z" fill="#ffce00"/><path fill="#ff9d00" d="M176 36l-10.4 8.8-12.8.8 2.4-28z"/></svg>