<svg xmlns="http://www.w3.org/2000/svg" width="29.989" height="29.99"><path d="M19.665 7.333c-2.637 0-4.869 1.73-5.639 4.113a5.865 5.865 0 0 0-.876.453 5.296 5.296 0 0 0-3.675-1.482c-2.291 0-4.337 1.496-5.069 3.632C1.892 14.505 0 16.71 0 19.304a5.367 5.367 0 0 0 5.363 5.361c.4 0 .811-.053 1.225-.154a5.38 5.38 0 0 0 3.955 1.759c.838 0 1.657-.196 2.404-.573a5.313 5.313 0 0 0 3.256 1.107 5.38 5.38 0 0 0 4.546-2.544 4.434 4.434 0 0 0 4.661-4.421c0-1.115-.42-2.127-1.105-2.904a5.87 5.87 0 0 0 1.291-3.671 5.937 5.937 0 0 0-5.931-5.931zm0 1.645a4.29 4.29 0 0 1 4.285 4.285c0 1.012-.36 1.932-.953 2.661a4.45 4.45 0 0 0-.972-.372c-.618-2.646-2.986-4.573-5.741-4.573-.074 0-.146.013-.22.016.755-1.204 2.077-2.017 3.601-2.017zm1.317 13.643a2.75 2.75 0 0 1-.531-.056l-.626-.118-.272.574a3.694 3.694 0 0 1-5.938 1.08l-.475-.462-.552.366a3.708 3.708 0 0 1-2.046.617 3.682 3.682 0 0 1-3.001-1.543l-.362-.498-.58.209a3.658 3.658 0 0 1-1.236.229 3.722 3.722 0 0 1-3.718-3.717c0-1.932 1.521-3.553 3.461-3.688l.613-.043.133-.601a3.737 3.737 0 0 1 3.623-2.911c1.135 0 2.197.526 2.915 1.443l.523.667.651-.542a4.205 4.205 0 0 1 2.719-1.006c2.136 0 3.949 1.61 4.218 3.745l.083.654.656.062a2.764 2.764 0 0 1 2.523 2.752 2.783 2.783 0 0 1-2.781 2.787zM29.702 13.222h-1.819a.286.286 0 1 0 0 .573h1.819a.286.286 0 1 0 0-.573zM26.781 9.686a.294.294 0 0 0 .143-.038l1.577-.909a.286.286 0 0 0 .104-.393.285.285 0 0 0-.391-.105l-1.577.909a.285.285 0 0 0-.104.392.283.283 0 0 0 .248.144zM23.629 6.64a.286.286 0 0 0 .393-.104l.912-1.576a.29.29 0 0 0-.104-.393.289.289 0 0 0-.392.104l-.912 1.576a.285.285 0 0 0 .103.393zM19.664 5.579a.287.287 0 0 0 .287-.286l.002-1.821a.287.287 0 0 0-.573 0l-.003 1.821c0 .156.129.286.287.286zM15.309 6.537a.286.286 0 0 0 .392.107.285.285 0 0 0 .104-.393l-.91-1.579a.287.287 0 0 0-.496.289l.91 1.576z"/><path d="M10.83 8.739l1.577.91a.285.285 0 0 0 .392-.105.287.287 0 0 0-.105-.392l-1.577-.911a.288.288 0 0 0-.287.498zM28.501 18.281l-1.577-.91a.286.286 0 0 0-.392.104.288.288 0 0 0 .104.392l1.576.91a.297.297 0 0 0 .145.038c.1 0 .195-.051.248-.144a.283.283 0 0 0-.104-.39z"/></svg>